<svg version="1.1" id="Capa_1" xmlns="http://www.w3.org/2000/svg" xmlns:xlink="http://www.w3.org/1999/xlink" x="0px" y="0px" viewBox="0 0 510 510" style="enable-background:new 0 0 510 510;" xml:space="preserve">
<g>
	<g>
		<polygon style="fill:#FFFFFF;" points="300.955,202.152 255.069,10 209.182,202.152 &#9;&#9;"/>
		<path style="fill:#F7B073;" d="M400.732,287.531c0.478-2.675,0.727-5.388,0.727-8.133c0-44.916-65.541-81.328-146.39-81.328&#10;&#9;&#9;&#9;s-146.39,36.412-146.39,81.328c0,2.745,0.248,5.458,0.727,8.133H400.732z"/>
		<polygon style="fill:#67CCD1;" points="377.06,500 133.077,500 84.28,287.531 425.857,287.531 &#9;&#9;"/>
		<path style="fill:#1A8DC2;" d="M192.508,354.064c0-22.783,2.289-45.03,6.633-66.533H84.28L133.077,500h92.908&#10;&#9;&#9;&#9;C204.545,455.904,192.508,406.392,192.508,354.064z"/>
		<g>
			<path style="fill:#FD7DA0;" d="M136.914,230.569c-9.655-3.8-51.221-16.893-52.771-65.03v-8.133&#10;&#9;&#9;&#9;&#9;c0-56.929,32.531-73.195,32.531-73.195s57.13,113.789,59.392,120.3c3.629,10.447,7.754,22.074-7.671,30.527&#10;&#9;&#9;&#9;&#9;C161.964,238.564,149.432,235.497,136.914,230.569z"/>
			<path style="fill:#FD7DA0;" d="M373.086,230.569c9.655-3.8,51.221-16.893,52.771-65.03v-8.133&#10;&#9;&#9;&#9;&#9;c0-56.929-32.531-73.195-32.531-73.195s-57.13,113.789-59.392,120.3c-3.628,10.447-7.754,22.074,7.671,30.527&#10;&#9;&#9;&#9;&#9;C348.036,238.564,360.568,235.497,373.086,230.569z"/>
		</g>
	</g>
	<g>
		
			<line style="fill:none;stroke:#052A75;stroke-width:20;stroke-linecap:round;stroke-linejoin:round;stroke-miterlimit:10;" x1="222.537" y1="157.407" x2="279.467" y2="124.876"/>
		<polyline style="fill:none;stroke:#052A75;stroke-width:20;stroke-linejoin:round;stroke-miterlimit:10;" points="&#10;&#9;&#9;&#9;300.955,202.152 255.069,10 209.182,202.152 &#9;&#9;"/>
		<path style="fill:none;stroke:#052A75;stroke-width:20;stroke-linecap:round;stroke-linejoin:round;stroke-miterlimit:10;" d="&#10;&#9;&#9;&#9;M135.209,232.694c-16.717,13.217-26.531,29.324-26.531,46.704c0,2.745,0.248,5.458,0.727,8.133"/>
		<path style="fill:none;stroke:#052A75;stroke-width:20;stroke-linecap:round;stroke-linejoin:round;stroke-miterlimit:10;" d="&#10;&#9;&#9;&#9;M327.357,208.662c-21.326-6.741-45.998-10.591-72.289-10.591c-27.171,0-52.613,4.112-74.419,11.278"/>
		<path style="fill:none;stroke:#052A75;stroke-width:20;stroke-linecap:round;stroke-linejoin:round;stroke-miterlimit:10;" d="&#10;&#9;&#9;&#9;M400.732,287.531c0.478-2.675,0.727-5.388,0.727-8.133c0-17.533-9.987-33.771-26.973-47.052"/>
		
			<polygon style="fill:none;stroke:#052A75;stroke-width:20;stroke-linecap:round;stroke-linejoin:round;stroke-miterlimit:10;" points="&#10;&#9;&#9;&#9;377.06,500 133.077,500 84.28,287.531 425.857,287.531 &#9;&#9;"/>
		
			<line style="fill:none;stroke:#052A75;stroke-width:20;stroke-linecap:round;stroke-linejoin:round;stroke-miterlimit:10;" x1="360.795" y1="287.531" x2="328.264" y2="500"/>
		
			<line style="fill:none;stroke:#052A75;stroke-width:20;stroke-linecap:round;stroke-linejoin:round;stroke-miterlimit:10;" x1="149.342" y1="287.531" x2="181.874" y2="500"/>
		
			<line style="fill:none;stroke:#052A75;stroke-width:20;stroke-linecap:round;stroke-linejoin:round;stroke-miterlimit:10;" x1="214.405" y1="287.531" x2="230.67" y2="500"/>
		
			<line style="fill:none;stroke:#052A75;stroke-width:20;stroke-linecap:round;stroke-linejoin:round;stroke-miterlimit:10;" x1="295.732" y1="287.531" x2="279.467" y2="500"/>
		<g>
			<path style="fill:none;stroke:#052A75;stroke-width:20;stroke-linejoin:round;stroke-miterlimit:10;" d="M136.914,230.569&#10;&#9;&#9;&#9;&#9;c-9.655-3.8-51.221-16.893-52.771-65.03v-8.133c0-56.929,32.531-73.195,32.531-73.195s57.13,113.789,59.392,120.3&#10;&#9;&#9;&#9;&#9;c3.629,10.447,7.754,22.074-7.671,30.527C161.964,238.564,149.432,235.497,136.914,230.569z"/>
			<path style="fill:none;stroke:#052A75;stroke-width:20;stroke-linejoin:round;stroke-miterlimit:10;" d="M373.086,230.569&#10;&#9;&#9;&#9;&#9;c9.655-3.8,51.221-16.893,52.771-65.03v-8.133c0-56.929-32.531-73.195-32.531-73.195s-57.13,113.789-59.392,120.3&#10;&#9;&#9;&#9;&#9;c-3.628,10.447-7.754,22.074,7.671,30.527C348.036,238.564,360.568,235.497,373.086,230.569z"/>
		</g>
	</g>
</g>
<g>
</g>
<g>
</g>
<g>
</g>
<g>
</g>
<g>
</g>
<g>
</g>
<g>
</g>
<g>
</g>
<g>
</g>
<g>
</g>
<g>
</g>
<g>
</g>
<g>
</g>
<g>
</g>
<g>
</g>
</svg>