<svg id="Layer_1" height="512" viewBox="0 0 90 90" width="512" xmlns="http://www.w3.org/2000/svg" xmlns:svg="http://www.w3.org/2000/svg"><path id="path2" d="m71.098 13.314c0 1.215.363 2.344.984 3.287l-13.307 15.531c-.902-.541-1.953-.859-3.084-.859-1.803 0-3.416.803-4.51 2.063l-11.109-6.506c.135-.504.219-1.031.219-1.578 0-3.303-2.678-5.979-5.984-5.979-3.303 0-5.98 2.676-5.98 5.979 0 .547.078 1.078.219 1.584l-11.113 6.5c-1.094-1.266-2.709-2.063-4.512-2.063-3.301 0-5.979 2.676-5.979 5.979s2.678 5.979 5.979 5.979c3.303 0 5.98-2.676 5.98-5.979 0-.547-.078-1.078-.215-1.582l11.105-6.5c1.098 1.26 2.713 2.061 4.516 2.061 1.807 0 3.416-.795 4.516-2.061l11.109 6.5c-.141.504-.219 1.035-.219 1.582 0 3.303 2.676 5.979 5.979 5.979 3.307 0 5.984-2.676 5.984-5.979 0-1.213-.365-2.338-.984-3.285l13.307-15.531c.9.541 1.953.859 3.084.859 3.301 0 5.979-2.68 5.979-5.98s-2.679-5.98-5.98-5.98c-3.309 0-5.984 2.678-5.984 5.979z" fill="#324d75"/><path id="rect4" d="m6.3569999 52.619999h13.1270001v30.068001h-13.1270001z" fill="#2b79c2"/><path id="rect6" d="m27.743999 40.619999h13.125v42.068001h-13.125z" fill="#324d75"/><path id="rect8" d="m49.129002 52.619999h13.130999v30.068001h-13.130999z" fill="#2b79c2"/><path id="rect10" d="m70.519997 28.688h13.125v54h-13.125z" fill="#324d75"/></svg>